<svg xmlns="http://www.w3.org/2000/svg" width="1440" height="900"><path d="M702,452L781,385L700,417Z" fill="#9a9a9a" stroke="#9a9a9a" stroke-width="1.51"/><path d="M702,452L792,503L781,385Z" fill="#929292" stroke="#929292" stroke-width="1.51"/><path d="M792,503L840,421L781,385Z" fill="#909090" stroke="#909090" stroke-width="1.51"/><path d="M792,503L864,502L840,421Z" fill="#878787" stroke="#878787" stroke-width="1.51"/><path d="M781,385L679,308L700,417Z" fill="#a4a4a4" stroke="#a4a4a4" stroke-width="1.51"/><path d="M700,417L582,409L702,452Z" fill="#a0a0a0" stroke="#a0a0a0" stroke-width="1.51"/><path d="M793,290L679,308L781,385Z" fill="#a7a7a7" stroke="#a7a7a7" stroke-width="1.51"/><path d="M853,323L793,290L781,385Z" fill="#a1a1a1" stroke="#a1a1a1" stroke-width="1.51"/><path d="M840,421L853,323L781,385Z" fill="#989898" stroke="#989898" stroke-width="1.51"/><path d="M935,358L853,323L840,421Z" fill="#949494" stroke="#949494" stroke-width="1.51"/><path d="M792,503L867,579L864,502Z" fill="#7e7e7e" stroke="#7e7e7e" stroke-width="1.51"/><path d="M653,575L789,587L792,503Z" fill="#838383" stroke="#838383" stroke-width="1.51"/><path d="M864,502L903,488L840,421Z" fill="#848484" stroke="#848484" stroke-width="1.51"/><path d="M900,587L903,488L864,502Z" fill="#797979" stroke="#797979" stroke-width="1.51"/><path d="M622,319L582,409L700,417Z" fill="#aaaaaa" stroke="#aaaaaa" stroke-width="1.51"/><path d="M702,452L653,575L792,503Z" fill="#8d8d8d" stroke="#8d8d8d" stroke-width="1.51"/><path d="M679,308L622,319L700,417Z" fill="#adadad" stroke="#adadad" stroke-width="1.51"/><path d="M577,527L653,575L702,452Z" fill="#939393" stroke="#939393" stroke-width="1.51"/><path d="M789,587L867,579L792,503Z" fill="#7c7c7c" stroke="#7c7c7c" stroke-width="1.51"/><path d="M962,385L935,358L840,421Z" fill="#8d8d8d" stroke="#8d8d8d" stroke-width="1.51"/><path d="M816,176L725,215L793,290Z" fill="#b1b1b1" stroke="#b1b1b1" stroke-width="1.51"/><path d="M582,409L577,527L702,452Z" fill="#9e9e9e" stroke="#9e9e9e" stroke-width="1.51"/><path d="M793,290L709,234L679,308Z" fill="#b0b0b0" stroke="#b0b0b0" stroke-width="1.51"/><path d="M679,308L667,185L622,319Z" fill="#b9b9b9" stroke="#b9b9b9" stroke-width="1.51"/><path d="M725,215L709,234L793,290Z" fill="#b2b2b2" stroke="#b2b2b2" stroke-width="1.51"/><path d="M867,579L900,587L864,502Z" fill="#767676" stroke="#767676" stroke-width="1.51"/><path d="M903,488L962,385L840,421Z" fill="#878787" stroke="#878787" stroke-width="1.51"/><path d="M878,703L900,587L867,579Z" fill="#6b6b6b" stroke="#6b6b6b" stroke-width="1.51"/><path d="M1011,533L962,385L903,488Z" fill="#7c7c7c" stroke="#7c7c7c" stroke-width="1.51"/><path d="M667,185L562,263L622,319Z" fill="#bebebe" stroke="#bebebe" stroke-width="1.51"/><path d="M847,200L793,290L853,323Z" fill="#a6a6a6" stroke="#a6a6a6" stroke-width="1.51"/><path d="M653,575L700,655L789,587Z" fill="#7e7e7e" stroke="#7e7e7e" stroke-width="1.51"/><path d="M789,587L775,682L867,579Z" fill="#737373" stroke="#737373" stroke-width="1.51"/><path d="M585,698L700,655L653,575Z" fill="#7f7f7f" stroke="#7f7f7f" stroke-width="1.51"/><path d="M582,409L520,457L577,527Z" fill="#a5a5a5" stroke="#a5a5a5" stroke-width="1.51"/><path d="M518,425L520,457L582,409Z" fill="#adadad" stroke="#adadad" stroke-width="1.51"/><path d="M520,294L518,425L582,409Z" fill="#b6b6b6" stroke="#b6b6b6" stroke-width="1.51"/><path d="M926,186L847,200L853,323Z" fill="#a6a6a6" stroke="#a6a6a6" stroke-width="1.51"/><path d="M926,186L853,323L935,358Z" fill="#9c9c9c" stroke="#9c9c9c" stroke-width="1.51"/><path d="M577,527L559,602L653,575Z" fill="#909090" stroke="#909090" stroke-width="1.51"/><path d="M520,457L531,548L577,527Z" fill="#9f9f9f" stroke="#9f9f9f" stroke-width="1.51"/><path d="M700,655L775,682L789,587Z" fill="#757575" stroke="#757575" stroke-width="1.51"/><path d="M622,319L520,294L582,409Z" fill="#b8b8b8" stroke="#b8b8b8" stroke-width="1.51"/><path d="M667,185L679,308L709,234Z" fill="#b9b9b9" stroke="#b9b9b9" stroke-width="1.51"/><path d="M531,548L559,602L577,527Z" fill="#969696" stroke="#969696" stroke-width="1.51"/><path d="M725,215L667,185L709,234Z" fill="#bababa" stroke="#bababa" stroke-width="1.51"/><path d="M789,127L667,185L725,215Z" fill="#bbbbbb" stroke="#bbbbbb" stroke-width="1.51"/><path d="M847,200L816,176L793,290Z" fill="#adadad" stroke="#adadad" stroke-width="1.51"/><path d="M562,263L520,294L622,319Z" fill="#bfbfbf" stroke="#bfbfbf" stroke-width="1.51"/><path d="M511,227L520,294L562,263Z" fill="#c7c7c7" stroke="#c7c7c7" stroke-width="1.51"/><path d="M900,587L1011,533L903,488Z" fill="#737373" stroke="#737373" stroke-width="1.51"/><path d="M1012,550L1011,533L900,587Z" fill="#6d6d6d" stroke="#6d6d6d" stroke-width="1.51"/><path d="M975,643L1012,550L900,587Z" fill="#686868" stroke="#686868" stroke-width="1.51"/><path d="M700,655L742,710L775,682Z" fill="#707070" stroke="#707070" stroke-width="1.51"/><path d="M708,738L742,710L700,655Z" fill="#6e6e6e" stroke="#6e6e6e" stroke-width="1.51"/><path d="M878,703L867,579L775,682Z" fill="#6b6b6b" stroke="#6b6b6b" stroke-width="1.51"/><path d="M962,385L1013,290L935,358Z" fill="#8f8f8f" stroke="#8f8f8f" stroke-width="1.51"/><path d="M847,200L926,186L816,176Z" fill="#acacac" stroke="#acacac" stroke-width="1.51"/><path d="M1094,370L1013,290L962,385Z" fill="#898989" stroke="#898989" stroke-width="1.51"/><path d="M1058,434L962,385L1011,533Z" fill="#7a7a7a" stroke="#7a7a7a" stroke-width="1.51"/><path d="M833,728L878,703L775,682Z" fill="#636363" stroke="#636363" stroke-width="1.51"/><path d="M1013,290L926,186L935,358Z" fill="#989898" stroke="#989898" stroke-width="1.51"/><path d="M1065,486L1058,434L1011,533Z" fill="#717171" stroke="#717171" stroke-width="1.51"/><path d="M837,55L789,127L816,176Z" fill="#b8b8b8" stroke="#b8b8b8" stroke-width="1.51"/><path d="M816,176L789,127L725,215Z" fill="#b6b6b6" stroke="#b6b6b6" stroke-width="1.51"/><path d="M878,703L975,643L900,587Z" fill="#656565" stroke="#656565" stroke-width="1.51"/><path d="M742,710L833,728L775,682Z" fill="#666666" stroke="#666666" stroke-width="1.51"/><path d="M585,698L708,738L700,655Z" fill="#747474" stroke="#747474" stroke-width="1.51"/><path d="M742,710L749,810L833,728Z" fill="#5e5e5e" stroke="#5e5e5e" stroke-width="1.51"/><path d="M1105,279L1015,265L1013,290Z" fill="#909090" stroke="#909090" stroke-width="1.51"/><path d="M1013,290L958,191L926,186Z" fill="#9f9f9f" stroke="#9f9f9f" stroke-width="1.51"/><path d="M559,602L585,698L653,575Z" fill="#878787" stroke="#878787" stroke-width="1.51"/><path d="M571,738L585,698L535,726Z" fill="#797979" stroke="#797979" stroke-width="1.51"/><path d="M1015,265L958,191L1013,290Z" fill="#989898" stroke="#989898" stroke-width="1.51"/><path d="M837,55L774,95L789,127Z" fill="#bbbbbb" stroke="#bbbbbb" stroke-width="1.51"/><path d="M417,459L520,457L518,425Z" fill="#aeaeae" stroke="#aeaeae" stroke-width="1.51"/><path d="M516,139L511,227L562,263Z" fill="#cdcdcd" stroke="#cdcdcd" stroke-width="1.51"/><path d="M621,119L562,263L667,185Z" fill="#c6c6c6" stroke="#c6c6c6" stroke-width="1.51"/><path d="M1012,550L1065,486L1011,533Z" fill="#6d6d6d" stroke="#6d6d6d" stroke-width="1.51"/><path d="M1080,601L1065,486L1012,550Z" fill="#676767" stroke="#676767" stroke-width="1.51"/><path d="M531,548L453,552L559,602Z" fill="#999999" stroke="#999999" stroke-width="1.51"/><path d="M520,457L453,552L531,548Z" fill="#a1a1a1" stroke="#a1a1a1" stroke-width="1.51"/><path d="M417,459L453,552L520,457Z" fill="#a9a9a9" stroke="#a9a9a9" stroke-width="1.51"/><path d="M424,386L518,425L520,294Z" fill="#bbbbbb" stroke="#bbbbbb" stroke-width="1.51"/><path d="M381,345L424,386L398,271Z" fill="#c8c8c8" stroke="#c8c8c8" stroke-width="1.51"/><path d="M424,386L417,459L518,425Z" fill="#b4b4b4" stroke="#b4b4b4" stroke-width="1.51"/><path d="M789,127L774,95L667,185Z" fill="#bdbdbd" stroke="#bdbdbd" stroke-width="1.51"/><path d="M837,55L816,176L926,186Z" fill="#b1b1b1" stroke="#b1b1b1" stroke-width="1.51"/><path d="M649,99L621,119L667,185Z" fill="#c8c8c8" stroke="#c8c8c8" stroke-width="1.51"/><path d="M1058,434L1094,370L962,385Z" fill="#808080" stroke="#808080" stroke-width="1.51"/><path d="M1223,415L1094,370L1058,434Z" fill="#747474" stroke="#747474" stroke-width="1.51"/><path d="M774,95L649,99L667,185Z" fill="#c3c3c3" stroke="#c3c3c3" stroke-width="1.51"/><path d="M975,643L1045,631L1012,550Z" fill="#616161" stroke="#616161" stroke-width="1.51"/><path d="M1223,415L1163,301L1094,370Z" fill="#767676" stroke="#767676" stroke-width="1.51"/><path d="M1030,742L1045,631L975,643Z" fill="#585858" stroke="#585858" stroke-width="1.51"/><path d="M964,735L975,643L878,703Z" fill="#5b5b5b" stroke="#5b5b5b" stroke-width="1.51"/><path d="M585,698L571,738L708,738Z" fill="#727272" stroke="#727272" stroke-width="1.51"/><path d="M535,726L585,698L474,671Z" fill="#818181" stroke="#818181" stroke-width="1.51"/><path d="M474,671L585,698L559,602Z" fill="#888888" stroke="#888888" stroke-width="1.51"/><path d="M453,552L474,671L559,602Z" fill="#939393" stroke="#939393" stroke-width="1.51"/><path d="M422,665L474,671L453,552Z" fill="#939393" stroke="#939393" stroke-width="1.51"/><path d="M1045,631L1080,601L1012,550Z" fill="#616161" stroke="#616161" stroke-width="1.51"/><path d="M973,805L964,735L878,703Z" fill="#4f4f4f" stroke="#4f4f4f" stroke-width="1.51"/><path d="M1045,631L1097,655L1080,601Z" fill="#595959" stroke="#595959" stroke-width="1.51"/><path d="M973,805L878,703L833,728Z" fill="#535353" stroke="#535353" stroke-width="1.51"/><path d="M621,119L516,139L562,263Z" fill="#cdcdcd" stroke="#cdcdcd" stroke-width="1.51"/><path d="M398,271L424,386L520,294Z" fill="#c6c6c6" stroke="#c6c6c6" stroke-width="1.51"/><path d="M525,78L516,139L621,119Z" fill="#d5d5d5" stroke="#d5d5d5" stroke-width="1.51"/><path d="M708,738L749,810L742,710Z" fill="#606060" stroke="#606060" stroke-width="1.51"/><path d="M636,829L749,810L708,738Z" fill="#5c5c5c" stroke="#5c5c5c" stroke-width="1.51"/><path d="M636,829L708,738L571,738Z" fill="#666666" stroke="#666666" stroke-width="1.51"/><path d="M424,386L346,404L417,459Z" fill="#bababa" stroke="#bababa" stroke-width="1.51"/><path d="M356,577L422,665L453,552Z" fill="#9b9b9b" stroke="#9b9b9b" stroke-width="1.51"/><path d="M398,271L520,294L511,227Z" fill="#cbcbcb" stroke="#cbcbcb" stroke-width="1.51"/><path d="M1094,370L1105,279L1013,290Z" fill="#898989" stroke="#898989" stroke-width="1.51"/><path d="M1015,265L1042,151L958,191Z" fill="#9d9d9d" stroke="#9d9d9d" stroke-width="1.51"/><path d="M1163,301L1105,279L1094,370Z" fill="#828282" stroke="#828282" stroke-width="1.51"/><path d="M934,48L837,55L926,186Z" fill="#b0b0b0" stroke="#b0b0b0" stroke-width="1.51"/><path d="M567,9L555,31L649,99Z" fill="#d5d5d5" stroke="#d5d5d5" stroke-width="1.51"/><path d="M934,48L926,186L958,191Z" fill="#a9a9a9" stroke="#a9a9a9" stroke-width="1.51"/><path d="M410,182L398,271L511,227Z" fill="#d3d3d3" stroke="#d3d3d3" stroke-width="1.51"/><path d="M1105,279L1042,151L1015,265Z" fill="#949494" stroke="#949494" stroke-width="1.51"/><path d="M379,745L516,819L535,726Z" fill="#767676" stroke="#767676" stroke-width="1.51"/><path d="M345,496L453,552L417,459Z" fill="#ababab" stroke="#ababab" stroke-width="1.51"/><path d="M381,345L346,404L424,386Z" fill="#c2c2c2" stroke="#c2c2c2" stroke-width="1.51"/><path d="M310,295L346,404L381,345Z" fill="#cacaca" stroke="#cacaca" stroke-width="1.51"/><path d="M1030,742L1097,655L1045,631Z" fill="#545454" stroke="#545454" stroke-width="1.51"/><path d="M1223,415L1058,434L1065,486Z" fill="#6f6f6f" stroke="#6f6f6f" stroke-width="1.51"/><path d="M346,404L345,496L417,459Z" fill="#b6b6b6" stroke="#b6b6b6" stroke-width="1.51"/><path d="M575,850L636,829L571,738Z" fill="#646464" stroke="#646464" stroke-width="1.51"/><path d="M516,819L571,738L535,726Z" fill="#727272" stroke="#727272" stroke-width="1.51"/><path d="M973,805L1030,742L964,735Z" fill="#484848" stroke="#484848" stroke-width="1.51"/><path d="M964,735L1030,742L975,643Z" fill="#535353" stroke="#535353" stroke-width="1.51"/><path d="M516,139L410,182L511,227Z" fill="#d4d4d4" stroke="#d4d4d4" stroke-width="1.51"/><path d="M555,31L525,78L621,119Z" fill="#d6d6d6" stroke="#d6d6d6" stroke-width="1.51"/><path d="M555,31L621,119L649,99Z" fill="#d0d0d0" stroke="#d0d0d0" stroke-width="1.51"/><path d="M345,496L356,577L453,552Z" fill="#a6a6a6" stroke="#a6a6a6" stroke-width="1.51"/><path d="M398,271L333,260L381,345Z" fill="#cfcfcf" stroke="#cfcfcf" stroke-width="1.51"/><path d="M395,83L410,182L516,139Z" fill="#dbdbdb" stroke="#dbdbdb" stroke-width="1.51"/><path d="M1042,151L934,48L958,191Z" fill="#a5a5a5" stroke="#a5a5a5" stroke-width="1.51"/><path d="M1105,279L1140,242L1042,151Z" fill="#909090" stroke="#909090" stroke-width="1.51"/><path d="M1199,520L1065,486L1080,601Z" fill="#616161" stroke="#616161" stroke-width="1.51"/><path d="M1163,301L1140,242L1105,279Z" fill="#858585" stroke="#858585" stroke-width="1.51"/><path d="M1042,151L1054,60L934,48Z" fill="#a6a6a6" stroke="#a6a6a6" stroke-width="1.51"/><path d="M890,880L973,805L833,728Z" fill="#474747" stroke="#474747" stroke-width="1.51"/><path d="M890,880L833,728L749,810Z" fill="#4e4e4e" stroke="#4e4e4e" stroke-width="1.51"/><path d="M395,83L339,177L410,182Z" fill="#dfdfdf" stroke="#dfdfdf" stroke-width="1.51"/><path d="M567,9L649,99L675,-61Z" fill="#d2d2d2" stroke="#d2d2d2" stroke-width="1.51"/><path d="M737,-37L774,95L837,55Z" fill="#c0c0c0" stroke="#c0c0c0" stroke-width="1.51"/><path d="M1097,655L1157,629L1080,601Z" fill="#545454" stroke="#545454" stroke-width="1.51"/><path d="M1159,721L1157,629L1097,655Z" fill="#4b4b4b" stroke="#4b4b4b" stroke-width="1.51"/><path d="M1159,721L1097,655L1030,742Z" fill="#494949" stroke="#494949" stroke-width="1.51"/><path d="M410,182L333,260L398,271Z" fill="#d6d6d6" stroke="#d6d6d6" stroke-width="1.51"/><path d="M346,404L278,480L345,496Z" fill="#b8b8b8" stroke="#b8b8b8" stroke-width="1.51"/><path d="M339,177L333,260L410,182Z" fill="#dbdbdb" stroke="#dbdbdb" stroke-width="1.51"/><path d="M379,745L474,671L422,665Z" fill="#8a8a8a" stroke="#8a8a8a" stroke-width="1.51"/><path d="M379,745L535,726L474,671Z" fill="#828282" stroke="#828282" stroke-width="1.51"/><path d="M516,819L575,850L571,738Z" fill="#686868" stroke="#686868" stroke-width="1.51"/><path d="M802,913L890,880L749,810Z" fill="#464646" stroke="#464646" stroke-width="1.51"/><path d="M1157,629L1199,520L1080,601Z" fill="#575757" stroke="#575757" stroke-width="1.51"/><path d="M934,48L862,-16L837,55Z" fill="#b7b7b7" stroke="#b7b7b7" stroke-width="1.51"/><path d="M395,83L516,139L525,78Z" fill="#dcdcdc" stroke="#dcdcdc" stroke-width="1.51"/><path d="M737,-37L649,99L774,95Z" fill="#c6c6c6" stroke="#c6c6c6" stroke-width="1.51"/><path d="M333,260L310,295L381,345Z" fill="#d0d0d0" stroke="#d0d0d0" stroke-width="1.51"/><path d="M345,496L278,480L356,577Z" fill="#aeaeae" stroke="#aeaeae" stroke-width="1.51"/><path d="M862,-16L737,-37L837,55Z" fill="#c0c0c0" stroke="#c0c0c0" stroke-width="1.51"/><path d="M802,913L749,810L703,917Z" fill="#4a4a4a" stroke="#4a4a4a" stroke-width="1.51"/><path d="M1199,520L1223,415L1065,486Z" fill="#646464" stroke="#646464" stroke-width="1.51"/><path d="M1197,159L1118,132L1140,242Z" fill="#8d8d8d" stroke="#8d8d8d" stroke-width="1.51"/><path d="M1236,252L1140,242L1163,301Z" fill="#7f7f7f" stroke="#7f7f7f" stroke-width="1.51"/><path d="M1140,242L1118,132L1042,151Z" fill="#949494" stroke="#949494" stroke-width="1.51"/><path d="M934,48L917,-41L862,-16Z" fill="#b6b6b6" stroke="#b6b6b6" stroke-width="1.51"/><path d="M890,880L1012,830L973,805Z" fill="#3e3e3e" stroke="#3e3e3e" stroke-width="1.51"/><path d="M973,805L1012,830L1030,742Z" fill="#414141" stroke="#414141" stroke-width="1.51"/><path d="M1012,830L1071,786L1030,742Z" fill="#3f3f3f" stroke="#3f3f3f" stroke-width="1.51"/><path d="M204,418L278,480L346,404Z" fill="#bfbfbf" stroke="#bfbfbf" stroke-width="1.51"/><path d="M356,738L379,745L422,665Z" fill="#878787" stroke="#878787" stroke-width="1.51"/><path d="M1093,70L1054,60L1042,151Z" fill="#a0a0a0" stroke="#a0a0a0" stroke-width="1.51"/><path d="M703,917L749,810L636,829Z" fill="#535353" stroke="#535353" stroke-width="1.51"/><path d="M395,83L525,78L508,-25Z" fill="#e0e0e0" stroke="#e0e0e0" stroke-width="1.51"/><path d="M244,233L236,289L310,295Z" fill="#d9d9d9" stroke="#d9d9d9" stroke-width="1.51"/><path d="M316,669L422,665L356,577Z" fill="#989898" stroke="#989898" stroke-width="1.51"/><path d="M629,908L703,917L636,829Z" fill="#515151" stroke="#515151" stroke-width="1.51"/><path d="M539,953L575,850L516,819Z" fill="#5e5e5e" stroke="#5e5e5e" stroke-width="1.51"/><path d="M539,953L629,908L575,850Z" fill="#565656" stroke="#565656" stroke-width="1.51"/><path d="M575,850L629,908L636,829Z" fill="#595959" stroke="#595959" stroke-width="1.51"/><path d="M1118,132L1093,70L1042,151Z" fill="#9c9c9c" stroke="#9c9c9c" stroke-width="1.51"/><path d="M1026,-55L917,-41L934,48Z" fill="#b0b0b0" stroke="#b0b0b0" stroke-width="1.51"/><path d="M232,604L316,669L356,577Z" fill="#9f9f9f" stroke="#9f9f9f" stroke-width="1.51"/><path d="M737,-37L675,-61L649,99Z" fill="#cdcdcd" stroke="#cdcdcd" stroke-width="1.51"/><path d="M722,-116L675,-61L737,-37Z" fill="#cacaca" stroke="#cacaca" stroke-width="1.51"/><path d="M1223,415L1252,361L1163,301Z" fill="#6f6f6f" stroke="#6f6f6f" stroke-width="1.51"/><path d="M1118,132L1180,41L1093,70Z" fill="#989898" stroke="#989898" stroke-width="1.51"/><path d="M1199,520L1251,415L1223,415Z" fill="#5f5f5f" stroke="#5f5f5f" stroke-width="1.51"/><path d="M1317,494L1251,415L1199,520Z" fill="#575757" stroke="#575757" stroke-width="1.51"/><path d="M1071,786L1159,721L1030,742Z" fill="#414141" stroke="#414141" stroke-width="1.51"/><path d="M1157,629L1216,621L1199,520Z" fill="#505050" stroke="#505050" stroke-width="1.51"/><path d="M1132,840L1159,721L1071,786Z" fill="#373737" stroke="#373737" stroke-width="1.51"/><path d="M508,-25L525,78L555,31Z" fill="#dddddd" stroke="#dddddd" stroke-width="1.51"/><path d="M508,-25L555,31L567,9Z" fill="#dddddd" stroke="#dddddd" stroke-width="1.51"/><path d="M883,-138L722,-116L737,-37Z" fill="#c3c3c3" stroke="#c3c3c3" stroke-width="1.51"/><path d="M1026,-55L934,48L1054,60Z" fill="#ababab" stroke="#ababab" stroke-width="1.51"/><path d="M1238,708L1216,621L1157,629Z" fill="#454545" stroke="#454545" stroke-width="1.51"/><path d="M316,669L356,738L422,665Z" fill="#8e8e8e" stroke="#8e8e8e" stroke-width="1.51"/><path d="M379,745L383,823L516,819Z" fill="#737373" stroke="#737373" stroke-width="1.51"/><path d="M1251,415L1252,361L1223,415Z" fill="#656565" stroke="#656565" stroke-width="1.51"/><path d="M1252,361L1236,252L1163,301Z" fill="#767676" stroke="#767676" stroke-width="1.51"/><path d="M617,-75L508,-25L567,9Z" fill="#dbdbdb" stroke="#dbdbdb" stroke-width="1.51"/><path d="M1236,252L1197,159L1140,242Z" fill="#838383" stroke="#838383" stroke-width="1.51"/><path d="M675,-61L617,-75L567,9Z" fill="#d5d5d5" stroke="#d5d5d5" stroke-width="1.51"/><path d="M649,-144L617,-75L675,-61Z" fill="#d2d2d2" stroke="#d2d2d2" stroke-width="1.51"/><path d="M244,233L310,295L333,260Z" fill="#d8d8d8" stroke="#d8d8d8" stroke-width="1.51"/><path d="M310,295L204,418L346,404Z" fill="#c9c9c9" stroke="#c9c9c9" stroke-width="1.51"/><path d="M278,480L232,604L356,577Z" fill="#aaaaaa" stroke="#aaaaaa" stroke-width="1.51"/><path d="M244,233L333,260L339,177Z" fill="#dcdcdc" stroke="#dcdcdc" stroke-width="1.51"/><path d="M329,801L379,745L356,738Z" fill="#7f7f7f" stroke="#7f7f7f" stroke-width="1.51"/><path d="M329,801L383,823L379,745Z" fill="#787878" stroke="#787878" stroke-width="1.51"/><path d="M802,913L807,968L890,880Z" fill="#3f3f3f" stroke="#3f3f3f" stroke-width="1.51"/><path d="M1092,979L1132,840L1012,830Z" fill="#2d2d2d" stroke="#2d2d2d" stroke-width="1.51"/><path d="M703,917L807,968L802,913Z" fill="#454545" stroke="#454545" stroke-width="1.51"/><path d="M747,1004L807,968L703,917Z" fill="#464646" stroke="#464646" stroke-width="1.51"/><path d="M212,136L244,233L339,177Z" fill="#e3e3e3" stroke="#e3e3e3" stroke-width="1.51"/><path d="M316,669L248,677L356,738Z" fill="#919191" stroke="#919191" stroke-width="1.51"/><path d="M142,462L232,604L278,480Z" fill="#b5b5b5" stroke="#b5b5b5" stroke-width="1.51"/><path d="M883,-138L737,-37L862,-16Z" fill="#bebebe" stroke="#bebebe" stroke-width="1.51"/><path d="M236,289L204,418L310,295Z" fill="#d2d2d2" stroke="#d2d2d2" stroke-width="1.51"/><path d="M153,390L204,418L236,289Z" fill="#d0d0d0" stroke="#d0d0d0" stroke-width="1.51"/><path d="M1159,721L1238,708L1157,629Z" fill="#424242" stroke="#424242" stroke-width="1.51"/><path d="M1012,830L1132,840L1071,786Z" fill="#373737" stroke="#373737" stroke-width="1.51"/><path d="M959,953L1012,830L890,880Z" fill="#373737" stroke="#373737" stroke-width="1.51"/><path d="M917,-41L883,-138L862,-16Z" fill="#b8b8b8" stroke="#b8b8b8" stroke-width="1.51"/><path d="M1124,-18L1026,-55L1054,60Z" fill="#a5a5a5" stroke="#a5a5a5" stroke-width="1.51"/><path d="M1124,-18L1054,60L1093,70Z" fill="#a0a0a0" stroke="#a0a0a0" stroke-width="1.51"/><path d="M1159,840L1238,708L1159,721Z" fill="#343434" stroke="#343434" stroke-width="1.51"/><path d="M1293,613L1317,494L1199,520Z" fill="#4c4c4c" stroke="#4c4c4c" stroke-width="1.51"/><path d="M864,1003L959,953L890,880Z" fill="#393939" stroke="#393939" stroke-width="1.51"/><path d="M232,604L248,677L316,669Z" fill="#9c9c9c" stroke="#9c9c9c" stroke-width="1.51"/><path d="M212,736L329,801L356,738Z" fill="#838383" stroke="#838383" stroke-width="1.51"/><path d="M639,1039L747,1004L703,917Z" fill="#4b4b4b" stroke="#4b4b4b" stroke-width="1.51"/><path d="M387,928L539,953L516,819Z" fill="#5e5e5e" stroke="#5e5e5e" stroke-width="1.51"/><path d="M387,928L516,819L383,823Z" fill="#686868" stroke="#686868" stroke-width="1.51"/><path d="M1236,252L1256,175L1197,159Z" fill="#808080" stroke="#808080" stroke-width="1.51"/><path d="M1197,159L1180,41L1118,132Z" fill="#919191" stroke="#919191" stroke-width="1.51"/><path d="M1318,263L1256,175L1236,252Z" fill="#777777" stroke="#777777" stroke-width="1.51"/><path d="M1318,263L1236,252L1252,361Z" fill="#707070" stroke="#707070" stroke-width="1.51"/><path d="M1251,415L1377,395L1252,361Z" fill="#606060" stroke="#606060" stroke-width="1.51"/><path d="M1293,613L1199,520L1216,621Z" fill="#4a4a4a" stroke="#4a4a4a" stroke-width="1.51"/><path d="M395,83L274,46L339,177Z" fill="#e6e6e6" stroke="#e6e6e6" stroke-width="1.51"/><path d="M508,-25L437,-42L395,83Z" fill="#e4e4e4" stroke="#e4e4e4" stroke-width="1.51"/><path d="M533,-130L437,-42L508,-25Z" fill="#e1e1e1" stroke="#e1e1e1" stroke-width="1.51"/><path d="M533,-130L508,-25L617,-75Z" fill="#dcdcdc" stroke="#dcdcdc" stroke-width="1.51"/><path d="M1238,708L1293,613L1216,621Z" fill="#404040" stroke="#404040" stroke-width="1.51"/><path d="M807,968L864,1003L890,880Z" fill="#3e3e3e" stroke="#3e3e3e" stroke-width="1.51"/><path d="M622,1022L703,917L629,908Z" fill="#505050" stroke="#505050" stroke-width="1.51"/><path d="M437,-42L341,30L395,83Z" fill="#e8e8e8" stroke="#e8e8e8" stroke-width="1.51"/><path d="M1159,944L1159,840L1132,840Z" fill="#262626" stroke="#262626" stroke-width="1.51"/><path d="M1132,840L1159,840L1159,721Z" fill="#313131" stroke="#313131" stroke-width="1.51"/><path d="M1268,67L1180,41L1197,159Z" fill="#8b8b8b" stroke="#8b8b8b" stroke-width="1.51"/><path d="M747,1004L864,1003L807,968Z" fill="#424242" stroke="#424242" stroke-width="1.51"/><path d="M1157,10L1124,-18L1093,70Z" fill="#9c9c9c" stroke="#9c9c9c" stroke-width="1.51"/><path d="M1180,41L1157,10L1093,70Z" fill="#999999" stroke="#999999" stroke-width="1.51"/><path d="M966,-117L883,-138L917,-41Z" fill="#b4b4b4" stroke="#b4b4b4" stroke-width="1.51"/><path d="M966,-117L917,-41L1026,-55Z" fill="#afafaf" stroke="#afafaf" stroke-width="1.51"/><path d="M722,-116L649,-144L675,-61Z" fill="#cdcdcd" stroke="#cdcdcd" stroke-width="1.51"/><path d="M883,-138L649,-144L722,-116Z" fill="#c6c6c6" stroke="#c6c6c6" stroke-width="1.51"/><path d="M959,953L998,965L1012,830Z" fill="#323232" stroke="#323232" stroke-width="1.51"/><path d="M956,989L998,965L959,953Z" fill="#343434" stroke="#343434" stroke-width="1.51"/><path d="M1011,-113L966,-117L1026,-55Z" fill="#acacac" stroke="#acacac" stroke-width="1.51"/><path d="M1256,175L1268,67L1197,159Z" fill="#848484" stroke="#848484" stroke-width="1.51"/><path d="M1371,334L1318,263L1252,361Z" fill="#686868" stroke="#686868" stroke-width="1.51"/><path d="M864,1003L956,989L959,953Z" fill="#373737" stroke="#373737" stroke-width="1.51"/><path d="M156,608L187,642L232,604Z" fill="#a5a5a5" stroke="#a5a5a5" stroke-width="1.51"/><path d="M232,604L187,642L248,677Z" fill="#a1a1a1" stroke="#a1a1a1" stroke-width="1.51"/><path d="M128,287L153,390L236,289Z" fill="#d9d9d9" stroke="#d9d9d9" stroke-width="1.51"/><path d="M150,263L236,289L244,233Z" fill="#dedede" stroke="#dedede" stroke-width="1.51"/><path d="M966,-117L1011,-113L883,-138Z" fill="#b1b1b1" stroke="#b1b1b1" stroke-width="1.51"/><path d="M1134,-91L1011,-113L1026,-55Z" fill="#a6a6a6" stroke="#a6a6a6" stroke-width="1.51"/><path d="M649,-144L533,-130L617,-75Z" fill="#d7d7d7" stroke="#d7d7d7" stroke-width="1.51"/><path d="M334,-61L274,46L341,30Z" fill="#eeeeee" stroke="#eeeeee" stroke-width="1.51"/><path d="M142,462L278,480L204,418Z" fill="#c0c0c0" stroke="#c0c0c0" stroke-width="1.51"/><path d="M248,677L212,736L356,738Z" fill="#8e8e8e" stroke="#8e8e8e" stroke-width="1.51"/><path d="M539,953L622,1022L629,908Z" fill="#555555" stroke="#555555" stroke-width="1.51"/><path d="M747,1004L639,1039L864,1003Z" fill="#464646" stroke="#464646" stroke-width="1.51"/><path d="M495,1021L622,1022L539,953Z" fill="#595959" stroke="#595959" stroke-width="1.51"/><path d="M153,390L142,462L204,418Z" fill="#c7c7c7" stroke="#c7c7c7" stroke-width="1.51"/><path d="M1293,613L1355,542L1317,494Z" fill="#464646" stroke="#464646" stroke-width="1.51"/><path d="M1317,494L1377,395L1251,415Z" fill="#575757" stroke="#575757" stroke-width="1.51"/><path d="M1352,678L1355,542L1293,613Z" fill="#3d3d3d" stroke="#3d3d3d" stroke-width="1.51"/><path d="M1376,521L1355,542L1456,566Z" fill="#404040" stroke="#404040" stroke-width="1.51"/><path d="M956,989L1007,990L998,965Z" fill="#323232" stroke="#323232" stroke-width="1.51"/><path d="M998,965L1092,979L1012,830Z" fill="#2e2e2e" stroke="#2e2e2e" stroke-width="1.51"/><path d="M1158,1052L1007,990L956,989Z" fill="#2e2e2e" stroke="#2e2e2e" stroke-width="1.51"/><path d="M341,30L274,46L395,83Z" fill="#eaeaea" stroke="#eaeaea" stroke-width="1.51"/><path d="M334,-61L341,30L437,-42Z" fill="#ebebeb" stroke="#ebebeb" stroke-width="1.51"/><path d="M274,46L212,136L339,177Z" fill="#e9e9e9" stroke="#e9e9e9" stroke-width="1.51"/><path d="M297,941L387,928L383,823Z" fill="#676767" stroke="#676767" stroke-width="1.51"/><path d="M297,941L383,823L329,801Z" fill="#6f6f6f" stroke="#6f6f6f" stroke-width="1.51"/><path d="M622,1022L639,1039L703,917Z" fill="#4f4f4f" stroke="#4f4f4f" stroke-width="1.51"/><path d="M864,1003L1158,1052L956,989Z" fill="#323232" stroke="#323232" stroke-width="1.51"/><path d="M495,1021L639,1039L622,1022Z" fill="#565656" stroke="#565656" stroke-width="1.51"/><path d="M187,642L212,736L248,677Z" fill="#999999" stroke="#999999" stroke-width="1.51"/><path d="M142,462L156,608L232,604Z" fill="#b0b0b0" stroke="#b0b0b0" stroke-width="1.51"/><path d="M138,819L197,782L65,701Z" fill="#8a8a8a" stroke="#8a8a8a" stroke-width="1.51"/><path d="M1376,521L1377,395L1317,494Z" fill="#4e4e4e" stroke="#4e4e4e" stroke-width="1.51"/><path d="M153,390L58,432L142,462Z" fill="#c8c8c8" stroke="#c8c8c8" stroke-width="1.51"/><path d="M170,144L150,263L244,233Z" fill="#e5e5e5" stroke="#e5e5e5" stroke-width="1.51"/><path d="M533,-130L411,-93L437,-42Z" fill="#e4e4e4" stroke="#e4e4e4" stroke-width="1.51"/><path d="M1350,133L1268,67L1256,175Z" fill="#7f7f7f" stroke="#7f7f7f" stroke-width="1.51"/><path d="M1377,395L1371,334L1252,361Z" fill="#616161" stroke="#616161" stroke-width="1.51"/><path d="M1355,542L1376,521L1317,494Z" fill="#484848" stroke="#484848" stroke-width="1.51"/><path d="M1352,678L1293,613L1238,708Z" fill="#383838" stroke="#383838" stroke-width="1.51"/><path d="M1124,-18L1134,-91L1026,-55Z" fill="#a2a2a2" stroke="#a2a2a2" stroke-width="1.51"/><path d="M1157,10L1134,-91L1124,-18Z" fill="#9c9c9c" stroke="#9c9c9c" stroke-width="1.51"/><path d="M1180,41L1283,-48L1157,10Z" fill="#929292" stroke="#929292" stroke-width="1.51"/><path d="M1350,133L1256,175L1318,263Z" fill="#777777" stroke="#777777" stroke-width="1.51"/><path d="M150,263L128,287L236,289Z" fill="#dedede" stroke="#dedede" stroke-width="1.51"/><path d="M33,312L128,287L53,219Z" fill="#e3e3e3" stroke="#e3e3e3" stroke-width="1.51"/><path d="M387,928L495,1021L539,953Z" fill="#5f5f5f" stroke="#5f5f5f" stroke-width="1.51"/><path d="M1007,990L1092,979L998,965Z" fill="#2f2f2f" stroke="#2f2f2f" stroke-width="1.51"/><path d="M1317,770L1352,678L1238,708Z" fill="#2f2f2f" stroke="#2f2f2f" stroke-width="1.51"/><path d="M1158,1052L1092,979L1007,990Z" fill="#2a2a2a" stroke="#2a2a2a" stroke-width="1.51"/><path d="M411,-93L334,-61L437,-42Z" fill="#e9e9e9" stroke="#e9e9e9" stroke-width="1.51"/><path d="M178,41L170,144L212,136Z" fill="#f0f0f0" stroke="#f0f0f0" stroke-width="1.51"/><path d="M1176,-137L1134,-91L1283,-48Z" fill="#939393" stroke="#939393" stroke-width="1.51"/><path d="M1011,-113L1176,-137L883,-138Z" fill="#aaaaaa" stroke="#aaaaaa" stroke-width="1.51"/><path d="M1317,770L1238,708L1290,837Z" fill="#262626" stroke="#262626" stroke-width="1.51"/><path d="M212,136L170,144L244,233Z" fill="#e8e8e8" stroke="#e8e8e8" stroke-width="1.51"/><path d="M178,41L212,136L274,46Z" fill="#f0f0f0" stroke="#f0f0f0" stroke-width="1.51"/><path d="M1092,979L1139,954L1132,840Z" fill="#262626" stroke="#262626" stroke-width="1.51"/><path d="M1139,954L1159,944L1132,840Z" fill="#242424" stroke="#242424" stroke-width="1.51"/><path d="M1158,1052L1159,944L1139,954Z" fill="#222222" stroke="#222222" stroke-width="1.51"/><path d="M1371,334L1378,236L1318,263Z" fill="#696969" stroke="#696969" stroke-width="1.51"/><path d="M1455,203L1378,236L1497,240Z" fill="#666666" stroke="#666666" stroke-width="1.51"/><path d="M197,782L212,736L65,701Z" fill="#8f8f8f" stroke="#8f8f8f" stroke-width="1.51"/><path d="M212,736L197,782L329,801Z" fill="#828282" stroke="#828282" stroke-width="1.51"/><path d="M387,928L391,998L495,1021Z" fill="#626262" stroke="#626262" stroke-width="1.51"/><path d="M1290,837L1238,708L1159,840Z" fill="#272727" stroke="#272727" stroke-width="1.51"/><path d="M1377,395L1419,394L1371,334Z" fill="#5a5a5a" stroke="#5a5a5a" stroke-width="1.51"/><path d="M1376,521L1419,394L1377,395Z" fill="#505050" stroke="#505050" stroke-width="1.51"/><path d="M1464,514L1419,394L1376,521Z" fill="#474747" stroke="#474747" stroke-width="1.51"/><path d="M1378,236L1350,133L1318,263Z" fill="#717171" stroke="#717171" stroke-width="1.51"/><path d="M1283,-48L1134,-91L1157,10Z" fill="#939393" stroke="#939393" stroke-width="1.51"/><path d="M297,941L391,998L387,928Z" fill="#666666" stroke="#666666" stroke-width="1.51"/><path d="M1159,944L1290,837L1159,840Z" fill="#202020" stroke="#202020" stroke-width="1.51"/><path d="M156,608L65,701L187,642Z" fill="#a3a3a3" stroke="#a3a3a3" stroke-width="1.51"/><path d="M142,462L93,604L156,608Z" fill="#b2b2b2" stroke="#b2b2b2" stroke-width="1.51"/><path d="M32,516L93,604L142,462Z" fill="#b9b9b9" stroke="#b9b9b9" stroke-width="1.51"/><path d="M240,895L297,941L329,801Z" fill="#6e6e6e" stroke="#6e6e6e" stroke-width="1.51"/><path d="M197,782L228,872L329,801Z" fill="#7a7a7a" stroke="#7a7a7a" stroke-width="1.51"/><path d="M138,819L228,872L197,782Z" fill="#7c7c7c" stroke="#7c7c7c" stroke-width="1.51"/><path d="M228,872L240,895L329,801Z" fill="#737373" stroke="#737373" stroke-width="1.51"/><path d="M33,312L153,390L128,287Z" fill="#dadada" stroke="#dadada" stroke-width="1.51"/><path d="M33,312L58,432L153,390Z" fill="#d3d3d3" stroke="#d3d3d3" stroke-width="1.51"/><path d="M53,219L128,287L150,263Z" fill="#e3e3e3" stroke="#e3e3e3" stroke-width="1.51"/><path d="M233,-58L178,41L274,46Z" fill="#f4f4f4" stroke="#f4f4f4" stroke-width="1.51"/><path d="M334,-61L233,-58L274,46Z" fill="#f1f1f1" stroke="#f1f1f1" stroke-width="1.51"/><path d="M411,-93L295,-92L334,-61Z" fill="#ededed" stroke="#ededed" stroke-width="1.51"/><path d="M274,-113L295,-92L411,-93Z" fill="#eeeeee" stroke="#eeeeee" stroke-width="1.51"/><path d="M1352,678L1456,566L1355,542Z" fill="#3a3a3a" stroke="#3a3a3a" stroke-width="1.51"/><path d="M1317,770L1397,722L1352,678Z" fill="#292929" stroke="#292929" stroke-width="1.51"/><path d="M1428,734L1397,722L1401,828Z" fill="#1d1d1d" stroke="#1d1d1d" stroke-width="1.51"/><path d="M1283,-48L1180,41L1268,67Z" fill="#8b8b8b" stroke="#8b8b8b" stroke-width="1.51"/><path d="M1134,-91L1176,-137L1011,-113Z" fill="#a0a0a0" stroke="#a0a0a0" stroke-width="1.51"/><path d="M883,-138L1341,-144L649,-144Z" fill="#b0b0b0" stroke="#b0b0b0" stroke-width="1.51"/><path d="M295,-92L233,-58L334,-61Z" fill="#f0f0f0" stroke="#f0f0f0" stroke-width="1.51"/><path d="M1331,-46L1283,-48L1268,67Z" fill="#868686" stroke="#868686" stroke-width="1.51"/><path d="M1473,680L1456,566L1352,678Z" fill="#303030" stroke="#303030" stroke-width="1.51"/><path d="M1455,203L1426,183L1378,236Z" fill="#6a6a6a" stroke="#6a6a6a" stroke-width="1.51"/><path d="M1378,236L1426,183L1350,133Z" fill="#707070" stroke="#707070" stroke-width="1.51"/><path d="M1456,566L1464,514L1376,521Z" fill="#3e3e3e" stroke="#3e3e3e" stroke-width="1.51"/><path d="M1350,133L1377,51L1268,67Z" fill="#7d7d7d" stroke="#7d7d7d" stroke-width="1.51"/><path d="M1378,236L1371,334L1497,240Z" fill="#646464" stroke="#646464" stroke-width="1.51"/><path d="M295,-92L274,-113L233,-58Z" fill="#f2f2f2" stroke="#f2f2f2" stroke-width="1.51"/><path d="M533,-130L274,-113L411,-93Z" fill="#e8e8e8" stroke="#e8e8e8" stroke-width="1.51"/><path d="M142,-143L274,-113L533,-130Z" fill="#efefef" stroke="#efefef" stroke-width="1.51"/><path d="M58,432L32,516L142,462Z" fill="#c3c3c3" stroke="#c3c3c3" stroke-width="1.51"/><path d="M65,701L212,736L187,642Z" fill="#9a9a9a" stroke="#9a9a9a" stroke-width="1.51"/><path d="M228,872L201,917L240,895Z" fill="#6f6f6f" stroke="#6f6f6f" stroke-width="1.51"/><path d="M-41,498L32,516L58,432Z" fill="#c3c3c3" stroke="#c3c3c3" stroke-width="1.51"/><path d="M65,701L156,608L93,604Z" fill="#a6a6a6" stroke="#a6a6a6" stroke-width="1.51"/><path d="M240,895L201,917L297,941Z" fill="#6d6d6d" stroke="#6d6d6d" stroke-width="1.51"/><path d="M53,219L150,263L170,144Z" fill="#e8e8e8" stroke="#e8e8e8" stroke-width="1.51"/><path d="M64,123L170,144L178,41Z" fill="#f2f2f2" stroke="#f2f2f2" stroke-width="1.51"/><path d="M64,123L53,219L170,144Z" fill="#eeeeee" stroke="#eeeeee" stroke-width="1.51"/><path d="M1426,183L1377,51L1350,133Z" fill="#757575" stroke="#757575" stroke-width="1.51"/><path d="M138,819L201,917L228,872Z" fill="#757575" stroke="#757575" stroke-width="1.51"/><path d="M297,941L334,1054L391,998Z" fill="#676767" stroke="#676767" stroke-width="1.51"/><path d="M-21,684L65,701L93,604Z" fill="#a4a4a4" stroke="#a4a4a4" stroke-width="1.51"/><path d="M1426,183L1486,41L1377,51Z" fill="#737373" stroke="#737373" stroke-width="1.51"/><path d="M1493,355L1371,334L1419,394Z" fill="#585858" stroke="#585858" stroke-width="1.51"/><path d="M1401,828L1317,770L1290,837Z" fill="#1b1b1b" stroke="#1b1b1b" stroke-width="1.51"/><path d="M1401,828L1397,722L1317,770Z" fill="#1e1e1e" stroke="#1e1e1e" stroke-width="1.51"/><path d="M1397,722L1473,680L1352,678Z" fill="#2a2a2a" stroke="#2a2a2a" stroke-width="1.51"/><path d="M1092,979L1158,1052L1139,954Z" fill="#252525" stroke="#252525" stroke-width="1.51"/><path d="M1317,957L1355,893L1290,837Z" fill="#111111" stroke="#111111" stroke-width="1.51"/><path d="M639,1039L1158,1052L864,1003Z" fill="#3a3a3a" stroke="#3a3a3a" stroke-width="1.51"/><path d="M1464,514L1493,355L1419,394Z" fill="#4d4d4d" stroke="#4d4d4d" stroke-width="1.51"/><path d="M1553,499L1493,355L1464,514Z" fill="#484848" stroke="#484848" stroke-width="1.51"/><path d="M1553,499L1464,514L1546,580Z" fill="#3e3e3e" stroke="#3e3e3e" stroke-width="1.51"/><path d="M10,240L13,311L33,312Z" fill="#e3e3e3" stroke="#e3e3e3" stroke-width="1.51"/><path d="M33,312L13,311L58,432Z" fill="#d9d9d9" stroke="#d9d9d9" stroke-width="1.51"/><path d="M1377,51L1331,-46L1268,67Z" fill="#818181" stroke="#818181" stroke-width="1.51"/><path d="M1283,-48L1309,-138L1176,-137Z" fill="#8a8a8a" stroke="#8a8a8a" stroke-width="1.51"/><path d="M1309,-138L1331,-46L1341,-144Z" fill="#838383" stroke="#838383" stroke-width="1.51"/><path d="M214,1045L334,1054L297,941Z" fill="#6b6b6b" stroke="#6b6b6b" stroke-width="1.51"/><path d="M391,998L334,1054L495,1021Z" fill="#636363" stroke="#636363" stroke-width="1.51"/><path d="M495,1021L334,1054L639,1039Z" fill="#5e5e5e" stroke="#5e5e5e" stroke-width="1.51"/><path d="M639,1039L334,1054L1158,1052Z" fill="#4a4a4a" stroke="#4a4a4a" stroke-width="1.51"/><path d="M38,77L64,123L178,41Z" fill="#f5f5f5" stroke="#f5f5f5" stroke-width="1.51"/><path d="M53,219L10,240L33,312Z" fill="#e6e6e6" stroke="#e6e6e6" stroke-width="1.51"/><path d="M120,-52L178,41L233,-58Z" fill="#f7f7f7" stroke="#f7f7f7" stroke-width="1.51"/><path d="M1317,957L1290,837L1159,944Z" fill="#171717" stroke="#171717" stroke-width="1.51"/><path d="M1355,893L1401,828L1290,837Z" fill="#151515" stroke="#151515" stroke-width="1.51"/><path d="M1428,734L1473,680L1397,722Z" fill="#252525" stroke="#252525" stroke-width="1.51"/><path d="M1528,784L1473,680L1428,734Z" fill="#202020" stroke="#202020" stroke-width="1.51"/><path d="M0,181L10,240L53,219Z" fill="#ececec" stroke="#ececec" stroke-width="1.51"/><path d="M1455,203L1530,176L1426,183Z" fill="#6a6a6a" stroke="#6a6a6a" stroke-width="1.51"/><path d="M1493,355L1497,240L1371,334Z" fill="#5d5d5d" stroke="#5d5d5d" stroke-width="1.51"/><path d="M1275,1036L1317,957L1159,944Z" fill="#171717" stroke="#171717" stroke-width="1.51"/><path d="M1474,935L1481,858L1401,828Z" fill="#060606" stroke="#060606" stroke-width="1.51"/><path d="M201,917L198,1010L297,941Z" fill="#6d6d6d" stroke="#6d6d6d" stroke-width="1.51"/><path d="M112,1029L198,1010L201,917Z" fill="#717171" stroke="#717171" stroke-width="1.51"/><path d="M65,701L56,776L138,819Z" fill="#8b8b8b" stroke="#8b8b8b" stroke-width="1.51"/><path d="M0,740L56,776L65,701Z" fill="#949494" stroke="#949494" stroke-width="1.51"/><path d="M-26,589L93,604L32,516Z" fill="#b4b4b4" stroke="#b4b4b4" stroke-width="1.51"/><path d="M64,123L0,181L53,219Z" fill="#efefef" stroke="#efefef" stroke-width="1.51"/><path d="M-48,365L58,432L13,311Z" fill="#d7d7d7" stroke="#d7d7d7" stroke-width="1.51"/><path d="M-41,498L-26,589L32,516Z" fill="#bbbbbb" stroke="#bbbbbb" stroke-width="1.51"/><path d="M38,77L0,181L64,123Z" fill="#f4f4f4" stroke="#f4f4f4" stroke-width="1.51"/><path d="M-41,498L58,432L-64,431Z" fill="#c9c9c9" stroke="#c9c9c9" stroke-width="1.51"/><path d="M142,-143L120,-52L233,-58Z" fill="#f8f8f8" stroke="#f8f8f8" stroke-width="1.51"/><path d="M1331,-46L1309,-138L1283,-48Z" fill="#858585" stroke="#858585" stroke-width="1.51"/><path d="M1176,-137L1341,-144L883,-138Z" fill="#9c9c9c" stroke="#9c9c9c" stroke-width="1.51"/><path d="M1341,-144L1331,-46L1426,-67Z" fill="#7e7e7e" stroke="#7e7e7e" stroke-width="1.51"/><path d="M-48,365L13,311L-87,287Z" fill="#e0e0e0" stroke="#e0e0e0" stroke-width="1.51"/><path d="M82,-16L38,77L178,41Z" fill="#f8f8f8" stroke="#f8f8f8" stroke-width="1.51"/><path d="M1474,935L1401,828L1355,893Z" fill="#080808" stroke="#080808" stroke-width="1.51"/><path d="M1158,1052L1275,1036L1159,944Z" fill="#1d1d1d" stroke="#1d1d1d" stroke-width="1.51"/><path d="M86,895L201,917L138,819Z" fill="#757575" stroke="#757575" stroke-width="1.51"/><path d="M1493,355L1551,305L1497,240Z" fill="#5e5e5e" stroke="#5e5e5e" stroke-width="1.51"/><path d="M1546,580L1464,514L1456,566Z" fill="#3b3b3b" stroke="#3b3b3b" stroke-width="1.51"/><path d="M-87,287L13,311L10,240Z" fill="#e5e5e5" stroke="#e5e5e5" stroke-width="1.51"/><path d="M120,-52L82,-16L178,41Z" fill="#f9f9f9" stroke="#f9f9f9" stroke-width="1.51"/><path d="M1473,680L1546,580L1456,566Z" fill="#333333" stroke="#333333" stroke-width="1.51"/><path d="M1569,633L1546,580L1473,680Z" fill="#313131" stroke="#313131" stroke-width="1.51"/><path d="M1497,240L1530,176L1455,203Z" fill="#686868" stroke="#686868" stroke-width="1.51"/><path d="M1581,381L1551,305L1493,355Z" fill="#595959" stroke="#595959" stroke-width="1.51"/><path d="M56,776L68,864L138,819Z" fill="#818181" stroke="#818181" stroke-width="1.51"/><path d="M-39,816L68,864L56,776Z" fill="#848484" stroke="#848484" stroke-width="1.51"/><path d="M68,864L86,895L138,819Z" fill="#7a7a7a" stroke="#7a7a7a" stroke-width="1.51"/><path d="M-21,684L0,740L65,701Z" fill="#9c9c9c" stroke="#9c9c9c" stroke-width="1.51"/><path d="M-71,614L-21,684L-26,589Z" fill="#ababab" stroke="#ababab" stroke-width="1.51"/><path d="M-26,589L-21,684L93,604Z" fill="#acacac" stroke="#acacac" stroke-width="1.51"/><path d="M198,1010L214,1045L297,941Z" fill="#6d6d6d" stroke="#6d6d6d" stroke-width="1.51"/><path d="M112,1029L214,1045L198,1010Z" fill="#707070" stroke="#707070" stroke-width="1.51"/><path d="M-48,365L-64,431L58,432Z" fill="#d1d1d1" stroke="#d1d1d1" stroke-width="1.51"/><path d="M-41,498L-71,614L-26,589Z" fill="#b6b6b6" stroke="#b6b6b6" stroke-width="1.51"/><path d="M1551,305L1530,176L1497,240Z" fill="#656565" stroke="#656565" stroke-width="1.51"/><path d="M1309,-138L1341,-144L1176,-137Z" fill="#888888" stroke="#888888" stroke-width="1.51"/><path d="M1426,-67L1331,-46L1377,51Z" fill="#7d7d7d" stroke="#7d7d7d" stroke-width="1.51"/><path d="M1553,499L1581,381L1493,355Z" fill="#4f4f4f" stroke="#4f4f4f" stroke-width="1.51"/><path d="M1551,305L1578,52L1530,176Z" fill="#6b6b6b" stroke="#6b6b6b" stroke-width="1.51"/><path d="M1569,633L1581,381L1553,499Z" fill="#424242" stroke="#424242" stroke-width="1.51"/><path d="M1530,176L1486,41L1426,183Z" fill="#6f6f6f" stroke="#6f6f6f" stroke-width="1.51"/><path d="M1486,41L1426,-67L1377,51Z" fill="#787878" stroke="#787878" stroke-width="1.51"/><path d="M274,-113L142,-143L233,-58Z" fill="#f5f5f5" stroke="#f5f5f5" stroke-width="1.51"/><path d="M120,-52L45,-109L82,-16Z" fill="#fbfbfb" stroke="#fbfbfb" stroke-width="1.51"/><path d="M-109,208L0,181L-110,105Z" fill="#f2f2f2" stroke="#f2f2f2" stroke-width="1.51"/><path d="M649,-144L142,-143L533,-130Z" fill="#e5e5e5" stroke="#e5e5e5" stroke-width="1.51"/><path d="M1546,580L1569,633L1553,499Z" fill="#393939" stroke="#393939" stroke-width="1.51"/><path d="M1528,784L1569,633L1473,680Z" fill="#262626" stroke="#262626" stroke-width="1.51"/><path d="M1481,858L1428,734L1401,828Z" fill="#141414" stroke="#141414" stroke-width="1.51"/><path d="M-128,476L-71,614L-41,498Z" fill="#bcbcbc" stroke="#bcbcbc" stroke-width="1.51"/><path d="M-95,748L-39,816L0,740Z" fill="#8e8e8e" stroke="#8e8e8e" stroke-width="1.51"/><path d="M-2,938L86,895L68,864Z" fill="#757575" stroke="#757575" stroke-width="1.51"/><path d="M1474,935L1355,893L1317,957Z" fill="#090909" stroke="#090909" stroke-width="1.51"/><path d="M1481,858L1528,784L1428,734Z" fill="#161616" stroke="#161616" stroke-width="1.51"/><path d="M-64,431L-128,476L-41,498Z" fill="#c6c6c6" stroke="#c6c6c6" stroke-width="1.51"/><path d="M-48,365L-128,476L-64,431Z" fill="#cecece" stroke="#cecece" stroke-width="1.51"/><path d="M-109,208L-87,287L10,240Z" fill="#e9e9e9" stroke="#e9e9e9" stroke-width="1.51"/><path d="M-109,208L10,240L0,181Z" fill="#ededed" stroke="#ededed" stroke-width="1.51"/><path d="M0,181L38,77L-110,105Z" fill="#f6f6f6" stroke="#f6f6f6" stroke-width="1.51"/><path d="M1426,-67L1432,-88L1341,-144Z" fill="#7b7b7b" stroke="#7b7b7b" stroke-width="1.51"/><path d="M1565,-34L1432,-88L1426,-67Z" fill="#777777" stroke="#777777" stroke-width="1.51"/><path d="M1481,858L1515,866L1528,784Z" fill="#0e0e0e" stroke="#0e0e0e" stroke-width="1.51"/><path d="M1275,1036L1360,1054L1317,957Z" fill="#111111" stroke="#111111" stroke-width="1.51"/><path d="M1158,1052L1360,1054L1275,1036Z" fill="#161616" stroke="#161616" stroke-width="1.51"/><path d="M334,1054L1360,1054L1158,1052Z" fill="#363636" stroke="#363636" stroke-width="1.51"/><path d="M-39,816L56,776L0,740Z" fill="#8c8c8c" stroke="#8c8c8c" stroke-width="1.51"/><path d="M-2,938L112,1029L86,895Z" fill="#757575" stroke="#757575" stroke-width="1.51"/><path d="M86,895L112,1029L201,917Z" fill="#727272" stroke="#727272" stroke-width="1.51"/><path d="M1474,935L1515,866L1481,858Z" fill="#030403" stroke="#030403" stroke-width="1.51"/><path d="M1528,784L1555,901L1569,633Z" fill="#191919" stroke="#191919" stroke-width="1.51"/><path d="M1360,1054L1474,935L1317,957Z" fill="#090909" stroke="#090909" stroke-width="1.51"/><path d="M-95,748L0,740L-21,684Z" fill="#999999" stroke="#999999" stroke-width="1.51"/><path d="M-121,689L-95,748L-21,684Z" fill="#9d9d9d" stroke="#9d9d9d" stroke-width="1.51"/><path d="M-87,287L-128,476L-48,365Z" fill="#d6d6d6" stroke="#d6d6d6" stroke-width="1.51"/><path d="M-87,287L-109,208L-128,476Z" fill="#dfdfdf" stroke="#dfdfdf" stroke-width="1.51"/><path d="M-50,30L38,77L82,-16Z" fill="#fcfcfc" stroke="#fcfcfc" stroke-width="1.51"/><path d="M142,-143L45,-109L120,-52Z" fill="#fafafa" stroke="#fafafa" stroke-width="1.51"/><path d="M-41,-56L-50,30L82,-16Z" fill="#ffffff" stroke="#ffffff" stroke-width="1.51"/><path d="M-39,816L-2,938L68,864Z" fill="#7b7b7b" stroke="#7b7b7b" stroke-width="1.51"/><path d="M-121,689L-21,684L-71,614Z" fill="#a6a6a6" stroke="#a6a6a6" stroke-width="1.51"/><path d="M1486,41L1565,-34L1426,-67Z" fill="#777777" stroke="#777777" stroke-width="1.51"/><path d="M1530,176L1578,52L1486,41Z" fill="#727272" stroke="#727272" stroke-width="1.51"/><path d="M1581,381L1578,52L1551,305Z" fill="#646464" stroke="#646464" stroke-width="1.51"/><path d="M-82,882L-2,938L-39,816Z" fill="#7a7a7a" stroke="#7a7a7a" stroke-width="1.51"/><path d="M-128,476L-121,689L-71,614Z" fill="#b2b2b2" stroke="#b2b2b2" stroke-width="1.51"/><path d="M-122,96L-110,105L-50,30Z" fill="#fafafa" stroke="#fafafa" stroke-width="1.51"/><path d="M-50,30L-110,105L38,77Z" fill="#fafafa" stroke="#fafafa" stroke-width="1.51"/><path d="M-109,208L-122,96L-128,476Z" fill="#e7e7e7" stroke="#e7e7e7" stroke-width="1.51"/><path d="M1510,1029L1555,901L1474,935Z" fill="#000000" stroke="#000000" stroke-width="1.51"/><path d="M1474,935L1555,901L1515,866Z" fill="#000000" stroke="#000000" stroke-width="1.51"/><path d="M1515,866L1555,901L1528,784Z" fill="#0b0b0b" stroke="#0b0b0b" stroke-width="1.51"/><path d="M45,-109L-41,-56L82,-16Z" fill="#fefefe" stroke="#fefefe" stroke-width="1.51"/><path d="M1432,-88L1574,-131L1341,-144Z" fill="#777777" stroke="#777777" stroke-width="1.51"/><path d="M1578,52L1565,-34L1486,41Z" fill="#767676" stroke="#767676" stroke-width="1.51"/><path d="M-130,-66L-122,96L-50,30Z" fill="#fdfdfd" stroke="#fdfdfd" stroke-width="1.51"/><path d="M-110,105L-122,96L-109,208Z" fill="#f5f5f5" stroke="#f5f5f5" stroke-width="1.51"/><path d="M1360,1054L1482,1037L1474,935Z" fill="#000000" stroke="#000000" stroke-width="1.51"/><path d="M-121,817L-82,882L-39,816Z" fill="#818181" stroke="#818181" stroke-width="1.51"/><path d="M-2,938L-16,994L112,1029Z" fill="#767676" stroke="#767676" stroke-width="1.51"/><path d="M-121,817L-39,816L-95,748Z" fill="#888888" stroke="#888888" stroke-width="1.51"/><path d="M-82,882L-16,994L-2,938Z" fill="#777777" stroke="#777777" stroke-width="1.51"/><path d="M-41,-56L-130,-66L-50,30Z" fill="#ffffff" stroke="#ffffff" stroke-width="1.51"/><path d="M45,-109L-46,-89L-41,-56Z" fill="#ffffff" stroke="#ffffff" stroke-width="1.51"/><path d="M-136,-131L-46,-89L45,-109Z" fill="#ffffff" stroke="#ffffff" stroke-width="1.51"/><path d="M-82,882L-123,1018L-16,994Z" fill="#777777" stroke="#777777" stroke-width="1.51"/><path d="M-121,689L-121,817L-95,748Z" fill="#929292" stroke="#929292" stroke-width="1.51"/><path d="M-128,476L-121,817L-121,689Z" fill="#a6a6a6" stroke="#a6a6a6" stroke-width="1.51"/><path d="M1482,1037L1510,1029L1474,935Z" fill="#000000" stroke="#000000" stroke-width="1.51"/><path d="M1565,-34L1574,-131L1432,-88Z" fill="#777777" stroke="#777777" stroke-width="1.51"/><path d="M1578,52L1574,-131L1565,-34Z" fill="#777777" stroke="#777777" stroke-width="1.51"/><path d="M-46,-89L-130,-66L-41,-56Z" fill="#ffffff" stroke="#ffffff" stroke-width="1.51"/><path d="M-122,96L-136,-131L-128,476Z" fill="#f4f4f4" stroke="#f4f4f4" stroke-width="1.51"/><path d="M-136,-131L-130,-66L-46,-89Z" fill="#ffffff" stroke="#ffffff" stroke-width="1.51"/><path d="M-130,-66L-136,-131L-122,96Z" fill="#ffffff" stroke="#ffffff" stroke-width="1.51"/><path d="M142,-143L-136,-131L45,-109Z" fill="#fefefe" stroke="#fefefe" stroke-width="1.51"/><path d="M-121,817L-123,1018L-82,882Z" fill="#777777" stroke="#777777" stroke-width="1.51"/><path d="M-16,994L-123,1018L112,1029Z" fill="#777777" stroke="#777777" stroke-width="1.51"/><path d="M112,1029L-123,1018L214,1045Z" fill="#747474" stroke="#747474" stroke-width="1.51"/><path d="M-128,476L-123,1018L-121,817Z" fill="#8d8d8d" stroke="#8d8d8d" stroke-width="1.51"/><path d="M-136,-131L-123,1018L-128,476Z" fill="#c9c9c9" stroke="#c9c9c9" stroke-width="1.51"/></svg>